<?xml version="1.0" standalone="no"?>
<!DOCTYPE svg PUBLIC "-//W3C//DTD SVG 20010904//EN"
 "http://www.w3.org/TR/2001/REC-SVG-20010904/DTD/svg10.dtd">
<svg version="1.0" xmlns="http://www.w3.org/2000/svg"
 width="1876.000000pt" height="1876.000000pt" viewBox="0 0 1876.000000 1876.000000"
 preserveAspectRatio="xMidYMid meet">
<metadata>
Created by potrace 1.11, written by Peter Selinger 2001-2013
</metadata>
<g transform="translate(0.000000,1876.000000) scale(0.100000,-0.100000)"
fill="#000000" stroke="none">
<path d="M9147 18754 c-1 -1 -81 -5 -177 -8 -96 -4 -191 -9 -210 -11 -19 -1
-78 -6 -130 -10 -52 -3 -108 -8 -125 -10 -16 -2 -58 -7 -91 -9 -63 -5 -299
-33 -344 -41 -14 -2 -59 -9 -100 -15 -155 -22 -526 -92 -685 -130 -49 -12 -97
-23 -105 -25 -35 -7 -84 -20 -240 -62 -91 -25 -172 -46 -180 -48 -21 -5 -156
-47 -275 -85 -168 -54 -510 -178 -580 -210 -11 -5 -69 -29 -130 -54 -344 -139
-809 -371 -1140 -569 -55 -33 -113 -67 -130 -77 -57 -32 -290 -183 -385 -248
-117 -80 -333 -234 -340 -242 -3 -3 -23 -18 -45 -34 -42 -31 -266 -207 -275
-216 -3 -3 -41 -34 -85 -70 -44 -36 -89 -74 -101 -85 -11 -11 -35 -32 -53 -46
-254 -208 -728 -690 -1011 -1029 -25 -29 -50 -58 -55 -64 -6 -6 -35 -42 -65
-81 -30 -38 -57 -72 -61 -75 -11 -8 -250 -328 -325 -435 -359 -509 -691 -1104
-949 -1705 -179 -418 -325 -844 -442 -1290 -19 -74 -37 -142 -39 -150 -10 -40
-63 -272 -67 -297 -3 -15 -15 -72 -26 -127 -12 -54 -23 -117 -26 -138 -3 -22
-7 -43 -9 -47 -2 -3 -7 -28 -10 -56 -4 -27 -9 -57 -11 -65 -2 -8 -6 -35 -9
-60 -3 -25 -8 -56 -10 -70 -8 -39 -44 -337 -51 -415 -4 -38 -8 -81 -10 -95 -2
-14 -6 -65 -10 -115 -3 -49 -8 -110 -10 -135 -23 -232 -23 -1036 0 -1240 2
-19 6 -78 10 -130 3 -52 8 -113 10 -136 3 -23 7 -65 10 -95 3 -30 10 -90 15
-134 6 -44 13 -98 16 -120 5 -41 40 -277 49 -330 3 -16 7 -43 10 -60 3 -16 7
-41 10 -55 3 -14 8 -41 11 -60 3 -19 7 -42 9 -50 2 -8 7 -28 9 -45 3 -16 17
-84 32 -150 14 -66 27 -129 30 -140 2 -11 15 -65 29 -120 14 -55 28 -108 30
-118 13 -57 93 -334 131 -457 108 -343 261 -743 406 -1060 109 -240 326 -658
430 -829 21 -34 38 -65 38 -67 0 -8 211 -339 299 -469 214 -316 501 -689 720
-935 403 -452 787 -818 1211 -1154 74 -59 142 -113 150 -119 62 -51 358 -261
510 -361 473 -314 935 -565 1480 -804 467 -204 1065 -398 1640 -531 47 -10 99
-22 115 -25 17 -2 75 -14 130 -25 135 -27 142 -28 285 -51 188 -31 284 -44
385 -55 33 -4 67 -8 75 -10 8 -3 49 -7 90 -10 41 -4 89 -8 105 -10 17 -2 75
-6 130 -10 55 -4 114 -8 130 -10 202 -23 1027 -23 1230 0 17 2 75 6 130 9 55
4 118 9 140 11 22 3 85 9 140 15 99 11 156 18 205 25 14 2 45 6 70 9 25 3 54
8 65 10 11 2 43 7 70 10 44 6 187 30 240 40 43 8 201 38 225 42 115 22 489
114 695 172 173 49 530 165 620 202 11 4 99 38 195 76 96 37 195 77 220 88 25
11 50 21 55 22 6 1 87 37 180 80 316 144 637 311 915 478 74 44 143 85 153 91
117 67 566 375 722 496 28 21 55 42 60 46 115 88 345 277 460 378 253 221 566
530 785 774 41 46 80 88 85 95 12 12 186 218 213 251 144 174 360 464 504 675
420 618 765 1287 1027 1994 67 179 122 337 126 356 1 3 18 57 38 120 38 121
136 467 143 510 3 14 14 59 24 100 10 41 21 86 24 100 3 14 18 88 35 165 16
77 32 156 36 175 3 19 7 44 9 55 10 50 55 335 61 384 4 30 8 63 11 74 2 10 6
45 9 76 4 31 8 72 11 91 2 19 6 62 9 95 3 33 7 74 10 90 3 17 8 75 11 130 3
55 7 116 9 135 28 267 22 1076 -10 1370 -3 30 -8 83 -10 117 -2 34 -6 79 -9
100 -3 21 -10 83 -16 138 -14 118 -17 140 -24 180 -2 17 -8 50 -11 75 -8 58
-14 99 -20 130 -3 14 -7 47 -11 73 -5 41 -96 498 -109 547 -9 37 -56 227 -60
246 -3 11 -30 108 -60 215 -169 588 -379 1121 -655 1664 -59 116 -117 228
-130 250 -12 22 -51 91 -87 153 -227 401 -518 829 -817 1202 -85 107 -237 289
-271 326 -5 6 -44 49 -85 95 -249 276 -600 620 -835 819 -27 23 -63 54 -80 69
-128 112 -400 323 -622 482 -189 135 -546 369 -563 369 -6 0 -10 3 -10 8 0 4
-10 12 -23 18 -12 6 -98 55 -192 109 -579 334 -1275 634 -1925 829 -194 58
-453 129 -512 140 -13 2 -61 13 -108 25 -74 18 -243 53 -320 67 -14 2 -36 7
-50 9 -86 17 -236 43 -319 55 -36 5 -83 12 -103 15 -75 10 -104 14 -188 24
-47 6 -112 13 -145 16 -33 3 -78 7 -100 10 -22 2 -78 7 -125 10 -47 3 -103 8
-125 10 -109 12 -847 28 -858 19z m628 -758 c83 -4 170 -9 195 -11 25 -2 81
-7 125 -10 165 -14 265 -24 305 -30 14 -2 50 -7 80 -10 30 -3 62 -8 70 -10 8
-2 42 -6 75 -10 33 -3 67 -8 75 -10 14 -4 62 -12 120 -20 68 -10 140 -23 295
-56 55 -11 111 -23 125 -25 19 -4 287 -68 370 -89 295 -75 902 -285 1158 -401
29 -13 54 -24 56 -24 7 0 156 -70 335 -157 341 -166 630 -330 951 -542 519
-342 920 -669 1371 -1120 193 -194 280 -286 428 -456 214 -244 469 -582 666
-880 94 -142 315 -500 315 -510 0 -1 30 -56 66 -121 62 -111 221 -429 294
-589 182 -398 370 -937 490 -1405 30 -119 35 -138 45 -185 3 -11 16 -74 30
-140 15 -66 35 -167 45 -225 10 -58 21 -118 24 -135 8 -45 34 -214 40 -260 3
-22 8 -62 11 -90 4 -27 8 -61 10 -75 2 -14 7 -54 10 -90 3 -36 8 -76 10 -90 2
-14 7 -68 10 -120 4 -52 8 -110 10 -130 23 -241 23 -934 0 -1180 -2 -19 -6
-78 -10 -130 -3 -52 -8 -102 -10 -110 -2 -8 -7 -51 -10 -94 -4 -43 -8 -86 -10
-95 -1 -9 -6 -45 -10 -81 -4 -36 -9 -72 -10 -80 -2 -8 -6 -37 -9 -65 -4 -27
-11 -75 -16 -105 -5 -30 -12 -72 -16 -94 -3 -21 -7 -46 -9 -55 -6 -32 -34
-187 -40 -216 -4 -25 -98 -429 -110 -475 -37 -140 -156 -537 -176 -584 -4 -12
-31 -86 -59 -166 -28 -80 -55 -154 -60 -165 -5 -11 -23 -56 -41 -100 -17 -44
-39 -98 -49 -120 -10 -22 -37 -85 -60 -140 -61 -146 -265 -556 -365 -734 -315
-560 -667 -1054 -1094 -1536 -138 -156 -527 -547 -666 -670 -55 -49 -116 -102
-135 -119 -127 -114 -393 -325 -565 -449 -66 -47 -124 -90 -130 -95 -25 -20
-372 -246 -480 -312 -515 -313 -1116 -594 -1690 -788 -130 -44 -339 -109 -400
-125 -11 -3 -54 -15 -95 -27 -41 -12 -82 -23 -90 -25 -8 -2 -62 -15 -120 -30
-90 -22 -189 -45 -265 -61 -11 -2 -31 -6 -45 -9 -14 -3 -36 -7 -50 -10 -14 -3
-47 -9 -75 -15 -27 -5 -62 -12 -78 -14 -15 -3 -35 -7 -45 -10 -9 -3 -37 -7
-62 -10 -25 -3 -56 -8 -70 -11 -14 -3 -41 -7 -60 -10 -60 -8 -194 -26 -227
-31 -18 -2 -48 -6 -65 -8 -18 -3 -60 -8 -93 -11 -33 -3 -73 -8 -90 -10 -16 -2
-77 -7 -135 -11 -58 -3 -113 -8 -122 -9 -113 -22 -1072 -22 -1185 -1 -10 2
-61 7 -113 11 -52 3 -111 8 -130 10 -19 2 -62 7 -95 10 -33 3 -71 8 -85 10
-14 2 -52 7 -85 11 -33 3 -67 8 -77 9 -9 2 -38 6 -65 10 -80 11 -107 16 -123
20 -8 2 -35 6 -60 9 -25 3 -56 8 -70 11 -14 3 -61 12 -105 20 -219 39 -571
123 -830 199 -124 36 -445 140 -480 156 -11 4 -83 32 -160 61 -226 85 -474
193 -720 314 -218 107 -527 274 -586 316 -15 10 -29 19 -32 19 -20 0 -469 296
-672 443 -148 107 -460 358 -625 503 -182 160 -547 522 -700 695 -69 78 -130
146 -135 153 -39 42 -218 263 -301 371 -256 334 -504 712 -714 1091 -146 263
-394 793 -479 1024 -8 19 -19 49 -26 65 -81 194 -302 915 -331 1084 -3 14 -9
42 -14 61 -14 54 -49 223 -70 345 -11 61 -22 119 -24 130 -2 11 -7 40 -11 65
-4 25 -9 52 -10 60 -5 30 -22 152 -30 220 -3 25 -7 61 -10 80 -3 19 -7 62 -10
95 -3 32 -7 71 -9 85 -3 14 -8 68 -11 120 -4 52 -9 111 -10 130 -23 258 -23
975 0 1190 2 19 7 71 10 115 10 121 21 236 30 307 2 18 7 58 10 88 4 30 8 62
11 70 2 8 6 35 9 60 3 25 10 74 16 110 6 36 13 81 15 100 4 28 58 308 69 360
2 8 12 56 23 105 47 215 142 553 233 827 36 110 117 336 129 363 5 11 30 72
56 135 83 207 216 503 283 630 106 203 145 275 214 395 210 368 457 735 721
1070 60 76 210 259 226 275 3 3 34 39 70 80 109 127 166 187 395 415 258 258
402 389 700 633 113 93 474 354 647 469 120 78 219 143 222 143 2 0 40 22 83
48 43 27 101 61 128 77 590 331 1062 541 1640 730 186 61 590 174 685 192 13
2 61 13 106 23 45 11 97 22 116 25 18 3 41 8 50 11 20 6 224 42 328 59 14 2
39 6 55 9 17 2 50 8 75 11 25 3 56 8 70 10 24 3 90 12 155 20 17 2 62 6 100
10 39 4 81 8 95 10 14 2 66 7 115 11 50 3 106 8 125 9 19 2 107 6 195 10 88 4
161 8 162 8 4 5 497 -1 628 -7z"/>
<path d="M2400 14022 c0 -4 6 -16 13 -27 8 -11 40 -69 72 -130 98 -187 219
-414 335 -630 15 -27 53 -99 85 -160 32 -60 65 -123 75 -140 9 -16 43 -79 75
-140 32 -60 65 -123 75 -140 9 -16 45 -84 80 -150 35 -66 111 -210 170 -320
59 -110 151 -283 205 -385 54 -102 111 -206 126 -233 16 -26 29 -52 29 -58 0
-6 8 -23 18 -37 10 -15 49 -85 87 -157 37 -71 85 -161 105 -200 21 -38 75
-140 120 -225 46 -85 98 -182 115 -215 43 -78 169 -314 182 -340 17 -34 34
-67 58 -109 12 -23 46 -86 75 -141 70 -133 274 -515 315 -590 18 -33 72 -134
120 -225 48 -91 106 -199 128 -240 22 -41 57 -106 77 -145 21 -38 95 -178 165
-310 70 -132 140 -262 155 -290 15 -27 67 -124 115 -215 48 -91 105 -196 125
-235 21 -38 59 -110 85 -160 26 -49 81 -153 123 -230 116 -218 192 -360 272
-510 29 -55 63 -118 75 -140 l23 -40 -1427 1 c-784 0 -1431 -1 -1437 -3 -12
-4 -17 -742 -5 -744 3 -1 738 -2 1633 -3 1070 -1 1630 -4 1636 -11 5 -5 31
-50 57 -100 26 -49 62 -117 80 -150 35 -64 75 -140 205 -385 130 -245 170
-321 205 -385 18 -33 53 -98 78 -145 24 -47 98 -184 162 -305 134 -250 173
-323 240 -450 26 -49 81 -153 123 -230 131 -245 148 -278 197 -370 27 -49 76
-142 110 -205 34 -63 67 -125 73 -137 7 -13 17 -33 24 -45 6 -13 25 -48 41
-78 58 -108 105 -196 152 -285 26 -49 62 -117 80 -150 44 -81 104 -193 155
-290 23 -44 57 -107 75 -140 18 -33 54 -100 80 -150 26 -49 60 -112 75 -140
15 -27 53 -99 85 -160 32 -60 89 -168 128 -240 124 -232 240 -449 263 -493 14
-28 15 -28 94 123 35 66 75 143 90 170 43 79 104 194 147 275 71 134 135 253
200 373 34 65 63 120 63 122 0 2 17 34 38 72 22 37 67 122 102 188 34 66 75
143 90 170 15 28 49 91 75 140 26 50 62 117 80 150 18 33 70 130 115 215 45
85 100 188 121 228 22 39 57 106 79 147 22 41 57 108 79 148 44 83 104 195
169 317 24 47 57 108 72 135 15 28 48 88 72 135 25 47 63 119 85 160 22 41 66
125 98 185 32 61 61 115 65 120 4 6 34 62 67 125 33 63 76 144 95 180 19 36
57 106 83 155 26 50 60 113 75 140 15 28 51 95 80 150 29 55 65 123 80 150 15
28 56 104 91 170 35 66 80 152 101 190 21 39 54 102 74 140 l36 70 1662 0
1661 0 0 372 c0 243 -3 374 -10 376 -5 2 -661 3 -1457 3 -797 -1 -1448 2
-1448 5 0 6 24 53 90 174 20 39 59 111 85 160 63 118 109 204 155 290 21 39
55 104 77 145 22 41 59 111 83 155 24 44 61 114 83 155 22 41 58 109 80 150
22 41 57 107 77 145 21 39 59 111 85 160 86 162 206 387 251 470 18 33 41 76
51 95 10 19 38 73 63 120 26 47 77 144 115 215 37 72 71 135 75 140 4 6 38 69
75 140 37 72 80 153 95 180 39 72 100 186 155 290 26 50 60 113 75 140 15 28
51 95 80 150 59 112 101 190 202 380 39 72 89 166 113 210 38 72 145 273 246
463 22 39 56 105 78 145 21 39 56 106 78 147 22 41 64 120 93 175 29 55 56
105 60 110 4 6 40 73 80 150 74 141 120 229 170 320 15 28 51 95 80 150 29 55
65 123 80 150 15 28 49 91 75 140 49 94 94 177 162 305 22 41 58 109 80 150
78 147 147 276 179 335 18 33 41 76 51 95 10 19 41 78 69 130 98 183 124 232
124 236 0 2 -3141 4 -6980 4 -3839 0 -6980 -3 -6980 -8z m12790 -698 c0 -5
-50 -100 -106 -204 -14 -25 -55 -101 -91 -170 -36 -69 -80 -152 -98 -185 -18
-33 -70 -130 -115 -215 -45 -85 -101 -189 -123 -230 -22 -41 -57 -108 -78
-147 -22 -40 -56 -106 -78 -145 -21 -40 -56 -107 -78 -148 -22 -41 -60 -111
-83 -155 -23 -44 -59 -111 -80 -150 -21 -38 -75 -140 -120 -225 -45 -85 -97
-182 -115 -215 -18 -33 -56 -105 -85 -160 -29 -55 -68 -129 -88 -165 -19 -36
-57 -108 -85 -160 -27 -52 -67 -126 -89 -163 -21 -38 -38 -70 -38 -72 0 -2
-29 -57 -63 -122 -60 -110 -88 -164 -205 -383 -24 -47 -57 -107 -72 -135 -15
-27 -49 -90 -75 -140 -26 -49 -62 -117 -80 -150 -18 -33 -52 -98 -77 -145 -51
-95 -269 -505 -329 -617 -22 -40 -57 -107 -79 -148 -22 -41 -57 -108 -79 -147
-21 -40 -60 -113 -86 -163 -26 -49 -60 -112 -75 -140 -15 -27 -49 -90 -75
-140 -26 -49 -62 -117 -80 -150 -18 -33 -72 -134 -120 -225 -48 -91 -105 -198
-126 -237 -50 -93 -111 -208 -160 -300 -22 -40 -58 -108 -81 -150 -23 -43 -50
-94 -59 -114 -10 -19 -24 -40 -31 -45 -13 -10 -4613 -14 -4620 -4 -2 3 -17 30
-32 60 -16 30 -41 78 -56 105 -15 28 -51 95 -80 150 -29 55 -65 123 -80 150
-15 28 -48 88 -72 135 -25 47 -65 121 -88 165 -23 44 -63 118 -88 165 -24 47
-57 108 -72 135 -15 28 -51 95 -80 150 -29 55 -65 123 -80 150 -15 28 -53 100
-85 160 -32 61 -65 124 -75 140 -9 17 -43 80 -75 140 -32 61 -70 133 -85 160
-15 28 -53 100 -85 160 -32 61 -65 124 -75 140 -10 17 -43 80 -75 140 -32 61
-70 133 -85 160 -15 28 -51 95 -80 150 -29 55 -65 123 -80 150 -15 28 -48 88
-72 135 -25 47 -65 121 -88 165 -23 44 -63 118 -88 165 -24 47 -57 108 -72
135 -15 28 -51 95 -80 150 -29 55 -65 123 -80 150 -15 28 -51 95 -80 150 -29
55 -101 190 -160 300 -59 110 -130 243 -157 295 -28 52 -86 160 -128 240 -43
80 -96 179 -117 220 -22 41 -61 113 -86 160 -24 47 -57 108 -72 135 -15 28
-49 91 -75 140 -46 86 -80 150 -164 308 -21 39 -78 146 -126 237 -48 91 -100
188 -115 215 -15 28 -49 91 -75 140 -26 50 -67 126 -91 171 -24 45 -44 84 -44
88 0 3 2614 6 5810 6 3196 0 5810 -2 5810 -6z m-3957 -7424 c-31 -58 -76 -143
-101 -190 -24 -47 -57 -107 -72 -135 -15 -27 -48 -88 -72 -135 -25 -47 -63
-119 -85 -160 -22 -41 -64 -120 -93 -175 -29 -55 -61 -113 -70 -130 -10 -16
-39 -70 -65 -120 -97 -184 -159 -301 -183 -345 -14 -25 -45 -83 -70 -130 -55
-105 -116 -219 -152 -285 -15 -27 -53 -99 -85 -160 -32 -60 -72 -137 -90 -170
-47 -86 -106 -198 -154 -287 -22 -43 -58 -111 -80 -150 -21 -40 -62 -118 -91
-173 -29 -55 -61 -113 -70 -130 -10 -16 -45 -82 -78 -145 -33 -63 -79 -149
-101 -190 -23 -41 -62 -117 -88 -167 -37 -71 -50 -90 -59 -80 -6 6 -37 62 -69
122 -32 61 -65 124 -75 140 -9 17 -45 84 -80 150 -35 66 -97 183 -138 260 -41
77 -97 183 -125 235 -27 52 -78 147 -112 210 -34 63 -86 160 -115 215 -49 92
-70 133 -168 315 -88 165 -113 212 -162 305 -29 55 -56 105 -60 110 -4 6 -42
78 -85 160 -43 83 -81 155 -85 160 -4 6 -35 64 -70 130 -34 66 -75 143 -90
170 -15 28 -50 93 -77 145 -28 52 -86 160 -128 240 -43 80 -96 179 -118 220
-21 41 -62 117 -89 167 -27 51 -47 96 -45 100 3 5 860 8 1905 8 l1901 0 -56
-105z"/>
</g>
</svg>
