<?xml version="1.0" standalone="no"?>
<!DOCTYPE svg PUBLIC "-//W3C//DTD SVG 20010904//EN"
 "http://www.w3.org/TR/2001/REC-SVG-20010904/DTD/svg10.dtd">
<svg version="1.0" xmlns="http://www.w3.org/2000/svg"
 width="1800.000000pt" height="1800.000000pt" viewBox="0 0 1800.000000 1800.000000"
 preserveAspectRatio="xMidYMid meet">
<metadata>
Created by potrace 1.11, written by Peter Selinger 2001-2013
</metadata>
<g transform="translate(0.000000,1800.000000) scale(0.100000,-0.100000)"
fill="#000000" stroke="none">
<path d="M8540 17989 c-2001 -103 -3894 -860 -5408 -2164 -2306 -1986 -3446
-4965 -3057 -7992 379 -2948 2208 -5526 4878 -6874 1601 -809 3411 -1115 5214
-884 3895 501 7041 3519 7703 7388 326 1913 36 3872 -829 5584 -1408 2787
-4147 4648 -7241 4918 -393 34 -883 43 -1260 24z m410 -6599 c0 -3355 -3
-6100 -7 -6100 -4 0 -446 -47 -983 -105 l-975 -104 -588 -27 c-324 -14 -591
-23 -595 -20 -3 4 -27 669 -53 1479 l-46 1472 52 2750 c29 1513 51 2753 48
2758 -2 4 -181 7 -398 7 -217 0 -396 -3 -398 -7 -3 -5 17 -1241 43 -2748 l48
-2740 -39 -1420 c-21 -781 -43 -1570 -49 -1754 -6 -183 -9 -335 -7 -337 2 -2
231 3 508 11 1529 47 1406 46 2339 15 465 -15 848 -25 851 -21 3 3 59 146 124
316 64 171 119 312 121 314 2 2 4 -1041 4 -2319 l0 -2323 -237 6 c-796 22
-1630 174 -2423 442 -2106 713 -3866 2248 -4866 4245 -489 976 -765 1961 -871
3100 -26 282 -26 1138 0 1420 47 508 124 965 237 1405 673 2627 2572 4787
5091 5789 868 345 1671 521 2689 589 25 2 120 4 213 5 l167 2 0 -6100z m1430
2003 c0 -60 -20 -1210 -46 -2556 -26 -1346 -44 -2450 -41 -2454 4 -3 345 -12
759 -20 688 -12 816 -12 1480 5 400 10 730 21 734 25 4 4 -12 1104 -35 2444
-23 1341 -41 2489 -41 2551 l0 112 395 0 395 0 0 -139 c0 -76 -23 -1314 -50
-2750 l-50 -2611 55 -1736 c30 -956 54 -1738 53 -1739 -7 -5 -792 -24 -797
-19 -3 3 13 701 36 1552 23 850 40 1548 37 1551 -3 3 -316 13 -697 23 -606 15
-789 16 -1477 6 -432 -6 -788 -13 -792 -17 -3 -3 16 -690 43 -1526 26 -836 49
-1531 49 -1546 l0 -25 -397 -12 c-218 -6 -399 -9 -402 -6 -3 3 12 649 33 1437
21 788 39 1486 39 1551 l2 120 -176 -3 -177 -3 -152 384 c-83 210 -154 389
-157 396 -5 11 54 12 331 6 l336 -7 0 109 c0 60 -18 1137 -40 2394 -22 1257
-40 2358 -40 2448 l0 162 395 0 395 0 0 -107z"/>
</g>
</svg>
